<?xml version="1.0" encoding="utf-8"?>
<!-- Generated by Mocodo 4.2.1 -->
<svg width="687" height="669" viewBox="0 0 687 669" xmlns="http://www.w3.org/2000/svg">
<rect x="0" y="0" width="687" height="669" fill="#f7f7f7" stroke="none" stroke-width="0"/>

<!-- Association PARLER -->
<g>
	<line x1="483" y1="245" x2="483" y2="102" stroke="#de77ae" stroke-width="2"/>
	<line x1="621" y1="102" x2="483" y2="102" stroke="#de77ae" stroke-width="2"/>
	<g>
		<path d="M500 77 a14 14 90 0 1 14 14 V102 h-62 V91 a14 14 90 0 1 14 -14" fill="#f1b6da" stroke="#f1b6da" stroke-width="0"/>
		<path d="M514 102 v11 a14 14 90 0 1 -14 14 H466 a14 14 90 0 1 -14 -14 V102 H62" fill="#fde0ef" stroke="#fde0ef" stroke-width="0"/>
		<rect x="452" y="77" width="62" height="50" fill="none" rx="14" stroke="#de77ae" stroke-width="2"/>
		<line x1="452" y1="102" x2="514" y2="102" stroke="#de77ae" stroke-width="1"/>
		<text x="460" y="94.75" fill="#000000" font-family="Verdana" font-size="12">PARLER</text>
	</g>
	<text x="488" y="203" fill="#4d9221" font-family="Verdana" font-size="12">1,N</text>
	<text x="555" y="119" fill="#4d9221" font-family="Verdana" font-size="12">0,N</text>
</g>

<!-- Association ATTRIBUER -->
<g>
	<line x1="343" y1="380" x2="208" y2="245" stroke="#de77ae" stroke-width="2"/>
	<line x1="208" y1="102" x2="208" y2="245" stroke="#de77ae" stroke-width="2"/>
	<g>
		<path d="M236 220 a14 14 90 0 1 14 14 V245 h-84 V234 a14 14 90 0 1 14 -14" fill="#f1b6da" stroke="#f1b6da" stroke-width="0"/>
		<path d="M250 245 v11 a14 14 90 0 1 -14 14 H180 a14 14 90 0 1 -14 -14 V245 H84" fill="#fde0ef" stroke="#fde0ef" stroke-width="0"/>
		<rect x="166" y="220" width="84" height="50" fill="none" rx="14" stroke="#de77ae" stroke-width="2"/>
		<line x1="166" y1="245" x2="250" y2="245" stroke="#de77ae" stroke-width="1"/>
		<text x="173" y="237.75" fill="#000000" font-family="Verdana" font-size="12">ATTRIBUER</text>
	</g>
	<text x="298.93" y="330" fill="#4d9221" font-family="Verdana" font-size="12">1,1</text>
	<text x="213" y="204" fill="#4d9221" font-family="Verdana" font-size="12">0,N</text>
</g>

<!-- Association S_ARMER -->
<g>
	<line x1="343" y1="380" x2="343" y2="245" stroke="#de77ae" stroke-width="2"/>
	<line x1="343" y1="102" x2="343" y2="245" stroke="#de77ae" stroke-width="2"/>
	<g>
		<path d="M366 220 a14 14 90 0 1 14 14 V245 h-74 V234 a14 14 90 0 1 14 -14" fill="#f1b6da" stroke="#f1b6da" stroke-width="0"/>
		<path d="M380 245 v11 a14 14 90 0 1 -14 14 H320 a14 14 90 0 1 -14 -14 V245 H74" fill="#fde0ef" stroke="#fde0ef" stroke-width="0"/>
		<rect x="306" y="220" width="74" height="50" fill="none" rx="14" stroke="#de77ae" stroke-width="2"/>
		<line x1="306" y1="245" x2="380" y2="245" stroke="#de77ae" stroke-width="1"/>
		<text x="314" y="237.75" fill="#000000" font-family="Verdana" font-size="12">S_ARMER</text>
	</g>
	<text x="348" y="330" fill="#4d9221" font-family="Verdana" font-size="12">0,1</text>
	<text x="348" y="212" fill="#4d9221" font-family="Verdana" font-size="12">0,N</text>
</g>

<!-- Association APPARAITRE -->
<g>
	<line x1="621" y1="102" x2="621" y2="245" stroke="#de77ae" stroke-width="2"/>
	<line x1="621" y1="380" x2="621" y2="245" stroke="#de77ae" stroke-width="2"/>
	<g>
		<path d="M653 220 a14 14 90 0 1 14 14 V245 h-92 V234 a14 14 90 0 1 14 -14" fill="#f1b6da" stroke="#f1b6da" stroke-width="0"/>
		<path d="M667 245 v11 a14 14 90 0 1 -14 14 H589 a14 14 90 0 1 -14 -14 V245 H92" fill="#fde0ef" stroke="#fde0ef" stroke-width="0"/>
		<rect x="575" y="220" width="92" height="50" fill="none" rx="14" stroke="#de77ae" stroke-width="2"/>
		<line x1="575" y1="245" x2="667" y2="245" stroke="#de77ae" stroke-width="1"/>
		<text x="583" y="237.75" fill="#000000" font-family="Verdana" font-size="12">APPARAITRE</text>
	</g>
	<text x="626" y="178" fill="#4d9221" font-family="Verdana" font-size="12">0,N</text>
	<text x="626" y="321" fill="#4d9221" font-family="Verdana" font-size="12">0,1</text>
</g>

<!-- Association POSSEDER -->
<g>
	<line x1="343" y1="380" x2="208" y2="380" stroke="#de77ae" stroke-width="2"/>
	<line x1="72" y1="380" x2="208" y2="380" stroke="#de77ae" stroke-width="2"/>
	<g>
		<path d="M235 355 a14 14 90 0 1 14 14 V380 h-82 V369 a14 14 90 0 1 14 -14" fill="#f1b6da" stroke="#f1b6da" stroke-width="0"/>
		<path d="M249 380 v11 a14 14 90 0 1 -14 14 H181 a14 14 90 0 1 -14 -14 V380 H82" fill="#fde0ef" stroke="#fde0ef" stroke-width="0"/>
		<rect x="167" y="355" width="82" height="50" fill="none" rx="14" stroke="#de77ae" stroke-width="2"/>
		<line x1="167" y1="380" x2="249" y2="380" stroke="#de77ae" stroke-width="1"/>
		<text x="175" y="372.75" fill="#000000" font-family="Verdana" font-size="12">POSSEDER</text>
	</g>
	<text x="258" y="397" fill="#4d9221" font-family="Verdana" font-size="12">1,1</text>
	<text x="140" y="397" fill="#4d9221" font-family="Verdana" font-size="12">0,N</text>
</g>

<!-- Association DECLENCHER -->
<g>
	<line x1="343" y1="380" x2="483" y2="380" stroke="#de77ae" stroke-width="2"/>
	<line x1="621" y1="380" x2="483" y2="380" stroke="#de77ae" stroke-width="2"/>
	<g>
		<path d="M518 355 a14 14 90 0 1 14 14 V380 h-98 V369 a14 14 90 0 1 14 -14" fill="#f1b6da" stroke="#f1b6da" stroke-width="0"/>
		<path d="M532 380 v11 a14 14 90 0 1 -14 14 H448 a14 14 90 0 1 -14 -14 V380 H98" fill="#fde0ef" stroke="#fde0ef" stroke-width="0"/>
		<rect x="434" y="355" width="98" height="50" fill="none" rx="14" stroke="#de77ae" stroke-width="2"/>
		<line x1="434" y1="380" x2="532" y2="380" stroke="#de77ae" stroke-width="1"/>
		<text x="442" y="372.75" fill="#000000" font-family="Verdana" font-size="12">DECLENCHER</text>
	</g>
	<text x="407" y="397" fill="#4d9221" font-family="Verdana" font-size="12">0,N</text>
	<text x="537" y="397" fill="#4d9221" font-family="Verdana" font-size="12">0,N</text>
</g>

<!-- Association S_EQUIPER -->
<g>
	<line x1="343" y1="380" x2="343" y2="575" stroke="#de77ae" stroke-width="2"/>
	<line x1="208" y1="575" x2="343" y2="575" stroke="#de77ae" stroke-width="2"/>
	<g>
		<path d="M372 550 a14 14 90 0 1 14 14 V575 h-86 V564 a14 14 90 0 1 14 -14" fill="#f1b6da" stroke="#f1b6da" stroke-width="0"/>
		<path d="M386 575 v11 a14 14 90 0 1 -14 14 H314 a14 14 90 0 1 -14 -14 V575 H86" fill="#fde0ef" stroke="#fde0ef" stroke-width="0"/>
		<rect x="300" y="550" width="86" height="50" fill="none" rx="14" stroke="#de77ae" stroke-width="2"/>
		<line x1="300" y1="575" x2="386" y2="575" stroke="#de77ae" stroke-width="1"/>
		<text x="308" y="567.75" fill="#000000" font-family="Verdana" font-size="12">S_EQUIPER</text>
	</g>
	<text x="348" y="439" fill="#4d9221" font-family="Verdana" font-size="12">0,1</text>
	<text x="273" y="592" fill="#4d9221" font-family="Verdana" font-size="12">0,N</text>
</g>

<!-- Association SURGIR -->
<g>
	<line x1="483" y1="575" x2="621" y2="575" stroke="#de77ae" stroke-width="2"/>
	<line x1="621" y1="380" x2="621" y2="575" stroke="#de77ae" stroke-width="2"/>
	<g>
		<path d="M639 550 a14 14 90 0 1 14 14 V575 h-64 V564 a14 14 90 0 1 14 -14" fill="#f1b6da" stroke="#f1b6da" stroke-width="0"/>
		<path d="M653 575 v11 a14 14 90 0 1 -14 14 H603 a14 14 90 0 1 -14 -14 V575 H64" fill="#fde0ef" stroke="#fde0ef" stroke-width="0"/>
		<rect x="589" y="550" width="64" height="50" fill="none" rx="14" stroke="#de77ae" stroke-width="2"/>
		<line x1="589" y1="575" x2="653" y2="575" stroke="#de77ae" stroke-width="1"/>
		<text x="597" y="567.75" fill="#000000" font-family="Verdana" font-size="12">SURGIR</text>
	</g>
	<text x="542" y="592" fill="#4d9221" font-family="Verdana" font-size="12">0,N</text>
	<text x="626" y="448" fill="#4d9221" font-family="Verdana" font-size="12">0,1</text>
</g>

<!-- Entity CLASSE -->
<g>
	<g>
		<rect x="163" y="17" width="90" height="25" fill="#b8e186" stroke="none" stroke-width="0" opacity="1"/>
		<rect x="163" y="42" width="90" height="145" fill="#e6f5d0" stroke="none" stroke-width="0" opacity="1"/>
		<rect x="163" y="17" width="90" height="170" fill="none" stroke="#7fbc41" stroke-width="2" opacity="1"/>
		<line x1="163" y1="42" x2="253" y2="42" stroke="#7fbc41" stroke-width="1"/>
	</g>
	<text x="188" y="34.75" fill="#000000" font-family="Verdana" font-size="12">Classe</text>
	<text x="168" y="59.8" fill="#000000" font-family="Verdana" font-size="12">code_classe</text>
	<line x1="168" y1="62" x2="241" y2="62" stroke="#000000" stroke-width="1"/>
	<text x="168" y="76.8" fill="#000000" font-family="Verdana" font-size="12">libellé</text>
	<text x="168" y="93.8" fill="#000000" font-family="Verdana" font-size="12">description</text>
	<text x="168" y="110.8" fill="#000000" font-family="Verdana" font-size="12">force</text>
	<text x="168" y="127.8" fill="#000000" font-family="Verdana" font-size="12">dextérité</text>
	<text x="168" y="144.8" fill="#000000" font-family="Verdana" font-size="12">intelligence</text>
	<text x="168" y="161.8" fill="#000000" font-family="Verdana" font-size="12">morale</text>
	<text x="168" y="178.8" fill="#000000" font-family="Verdana" font-size="12">point_de_vie</text>
</g>

<!-- Entity ARME -->
<g>
	<g>
		<rect x="289" y="9" width="108" height="25" fill="#b8e186" stroke="none" stroke-width="0" opacity="1"/>
		<rect x="289" y="34" width="108" height="161" fill="#e6f5d0" stroke="none" stroke-width="0" opacity="1"/>
		<rect x="289" y="9" width="108" height="186" fill="none" stroke="#7fbc41" stroke-width="2" opacity="1"/>
		<line x1="289" y1="34" x2="397" y2="34" stroke="#7fbc41" stroke-width="1"/>
	</g>
	<text x="327" y="26.75" fill="#000000" font-family="Verdana" font-size="12">Arme</text>
	<text x="294" y="51.8" fill="#000000" font-family="Verdana" font-size="12">code_arme</text>
	<line x1="294" y1="54" x2="362" y2="54" stroke="#000000" stroke-width="1"/>
	<text x="294" y="68.8" fill="#000000" font-family="Verdana" font-size="12">libellé</text>
	<text x="294" y="85.8" fill="#000000" font-family="Verdana" font-size="12">type</text>
	<text x="294" y="102.8" fill="#000000" font-family="Verdana" font-size="12">description</text>
	<text x="294" y="119.8" fill="#000000" font-family="Verdana" font-size="12">dégât_physique</text>
	<text x="294" y="136.8" fill="#000000" font-family="Verdana" font-size="12">dégât_magique</text>
	<text x="294" y="153.8" fill="#000000" font-family="Verdana" font-size="12">dégât_critique</text>
	<text x="294" y="170.8" fill="#000000" font-family="Verdana" font-size="12">taux_critique</text>
	<text x="294" y="187.8" fill="#000000" font-family="Verdana" font-size="12">niveau_objet</text>
</g>

<!-- Entity PNJ -->
<g>
	<g>
		<rect x="582" y="43" width="78" height="25" fill="#b8e186" stroke="none" stroke-width="0" opacity="1"/>
		<rect x="582" y="68" width="78" height="93" fill="#e6f5d0" stroke="none" stroke-width="0" opacity="1"/>
		<rect x="582" y="43" width="78" height="118" fill="none" stroke="#7fbc41" stroke-width="2" opacity="1"/>
		<line x1="582" y1="68" x2="660" y2="68" stroke="#7fbc41" stroke-width="1"/>
	</g>
	<text x="610" y="60.75" fill="#000000" font-family="Verdana" font-size="12">PNJ</text>
	<text x="587" y="85.8" fill="#000000" font-family="Verdana" font-size="12">code_pnj</text>
	<line x1="587" y1="88" x2="643" y2="88" stroke="#000000" stroke-width="1"/>
	<text x="587" y="102.8" fill="#000000" font-family="Verdana" font-size="12">nom</text>
	<text x="587" y="119.8" fill="#000000" font-family="Verdana" font-size="12">prenom</text>
	<text x="587" y="136.8" fill="#000000" font-family="Verdana" font-size="12">description</text>
	<text x="587" y="153.8" fill="#000000" font-family="Verdana" font-size="12">type</text>
</g>

<!-- Entity DIALOGUE -->
<g>
	<g>
		<rect x="434" y="211" width="98" height="25" fill="#b8e186" stroke="none" stroke-width="0" opacity="1"/>
		<rect x="434" y="236" width="98" height="43" fill="#e6f5d0" stroke="none" stroke-width="0" opacity="1"/>
		<rect x="434" y="211" width="98" height="68" fill="none" stroke="#7fbc41" stroke-width="2" opacity="1"/>
		<line x1="434" y1="236" x2="532" y2="236" stroke="#7fbc41" stroke-width="1"/>
	</g>
	<text x="457" y="228.75" fill="#000000" font-family="Verdana" font-size="12">dialogue</text>
	<text x="439" y="253.8" fill="#000000" font-family="Verdana" font-size="12">code_dialogue</text>
	<line x1="439" y1="256" x2="527" y2="256" stroke="#000000" stroke-width="1"/>
	<text x="439" y="270.8" fill="#000000" font-family="Verdana" font-size="12">contenu</text>
</g>

<!-- Entity UTILISATEUR -->
<g>
	<g>
		<rect x="9" y="295" width="126" height="25" fill="#b8e186" stroke="none" stroke-width="0" opacity="1"/>
		<rect x="9" y="320" width="126" height="145" fill="#e6f5d0" stroke="none" stroke-width="0" opacity="1"/>
		<rect x="9" y="295" width="126" height="170" fill="none" stroke="#7fbc41" stroke-width="2" opacity="1"/>
		<line x1="9" y1="320" x2="135" y2="320" stroke="#7fbc41" stroke-width="1"/>
	</g>
	<text x="41" y="312.75" fill="#000000" font-family="Verdana" font-size="12">Utilisateur</text>
	<text x="14" y="337.8" fill="#000000" font-family="Verdana" font-size="12">code_utilisateur</text>
	<line x1="14" y1="340" x2="111" y2="340" stroke="#000000" stroke-width="1"/>
	<text x="14" y="354.8" fill="#000000" font-family="Verdana" font-size="12">pseudonyme</text>
	<text x="14" y="371.8" fill="#000000" font-family="Verdana" font-size="12">prénom</text>
	<text x="14" y="388.8" fill="#000000" font-family="Verdana" font-size="12">nom</text>
	<text x="14" y="405.8" fill="#000000" font-family="Verdana" font-size="12">date_de_naissance</text>
	<text x="14" y="422.8" fill="#000000" font-family="Verdana" font-size="12">email</text>
	<text x="14" y="439.8" fill="#000000" font-family="Verdana" font-size="12">mot_de_passe</text>
	<text x="14" y="456.8" fill="#000000" font-family="Verdana" font-size="12">rôle</text>
</g>

<!-- Entity PERSONNAGE -->
<g>
	<g>
		<rect x="284" y="338" width="118" height="25" fill="#b8e186" stroke="none" stroke-width="0" opacity="1"/>
		<rect x="284" y="363" width="118" height="59" fill="#e6f5d0" stroke="none" stroke-width="0" opacity="1"/>
		<rect x="284" y="338" width="118" height="84" fill="none" stroke="#7fbc41" stroke-width="2" opacity="1"/>
		<line x1="284" y1="363" x2="402" y2="363" stroke="#7fbc41" stroke-width="1"/>
	</g>
	<text x="308" y="355.75" fill="#000000" font-family="Verdana" font-size="12">Personnage</text>
	<text x="289" y="380.8" fill="#000000" font-family="Verdana" font-size="12">code_personnage</text>
	<line x1="289" y1="383" x2="396" y2="383" stroke="#000000" stroke-width="1"/>
	<text x="289" y="397.8" fill="#000000" font-family="Verdana" font-size="12">pseudonyme</text>
	<text x="289" y="414.8" fill="#000000" font-family="Verdana" font-size="12">description</text>
</g>

<!-- Entity EVENEMENT -->
<g>
	<g>
		<rect x="564" y="329" width="114" height="25" fill="#b8e186" stroke="none" stroke-width="0" opacity="1"/>
		<rect x="564" y="354" width="114" height="77" fill="#e6f5d0" stroke="none" stroke-width="0" opacity="1"/>
		<rect x="564" y="329" width="114" height="102" fill="none" stroke="#7fbc41" stroke-width="2" opacity="1"/>
		<line x1="564" y1="354" x2="678" y2="354" stroke="#7fbc41" stroke-width="1"/>
	</g>
	<text x="587" y="346.75" fill="#000000" font-family="Verdana" font-size="12">Événement</text>
	<text x="569" y="371.8" fill="#000000" font-family="Verdana" font-size="12">code_événement</text>
	<line x1="569" y1="374" x2="673" y2="374" stroke="#000000" stroke-width="1"/>
	<text x="569" y="388.8" fill="#000000" font-family="Verdana" font-size="12">titre</text>
	<text x="569" y="405.8" fill="#000000" font-family="Verdana" font-size="12">description</text>
	<text x="569" y="422.8" fill="#000000" font-family="Verdana" font-size="12">type</text>
</g>

<!-- Entity ARMURE -->
<g>
	<g>
		<rect x="148" y="490" width="120" height="25" fill="#b8e186" stroke="none" stroke-width="0" opacity="1"/>
		<rect x="148" y="515" width="120" height="145" fill="#e6f5d0" stroke="none" stroke-width="0" opacity="1"/>
		<rect x="148" y="490" width="120" height="170" fill="none" stroke="#7fbc41" stroke-width="2" opacity="1"/>
		<line x1="148" y1="515" x2="268" y2="515" stroke="#7fbc41" stroke-width="1"/>
	</g>
	<text x="185" y="507.75" fill="#000000" font-family="Verdana" font-size="12">Armure</text>
	<text x="153" y="532.8" fill="#000000" font-family="Verdana" font-size="12">code_armure</text>
	<line x1="153" y1="535" x2="234" y2="535" stroke="#000000" stroke-width="1"/>
	<text x="153" y="549.8" fill="#000000" font-family="Verdana" font-size="12">libellé</text>
	<text x="153" y="566.8" fill="#000000" font-family="Verdana" font-size="12">type</text>
	<text x="153" y="583.8" fill="#000000" font-family="Verdana" font-size="12">description</text>
	<text x="153" y="600.8" fill="#000000" font-family="Verdana" font-size="12">point_de_vie</text>
	<text x="153" y="617.8" fill="#000000" font-family="Verdana" font-size="12">défense_physique</text>
	<text x="153" y="634.8" fill="#000000" font-family="Verdana" font-size="12">défense_magique</text>
	<text x="153" y="651.8" fill="#000000" font-family="Verdana" font-size="12">niveau_objet</text>
</g>

<!-- Entity MONSTRE -->
<g>
	<g>
		<rect x="429" y="499" width="108" height="25" fill="#b8e186" stroke="none" stroke-width="0" opacity="1"/>
		<rect x="429" y="524" width="108" height="127" fill="#e6f5d0" stroke="none" stroke-width="0" opacity="1"/>
		<rect x="429" y="499" width="108" height="152" fill="none" stroke="#7fbc41" stroke-width="2" opacity="1"/>
		<line x1="429" y1="524" x2="537" y2="524" stroke="#7fbc41" stroke-width="1"/>
	</g>
	<text x="459" y="516.75" fill="#000000" font-family="Verdana" font-size="12">Monstre</text>
	<text x="434" y="541.8" fill="#000000" font-family="Verdana" font-size="12">code_monstre</text>
	<line x1="434" y1="544" x2="521" y2="544" stroke="#000000" stroke-width="1"/>
	<text x="434" y="558.8" fill="#000000" font-family="Verdana" font-size="12">libellé</text>
	<text x="434" y="575.8" fill="#000000" font-family="Verdana" font-size="12">description</text>
	<text x="434" y="592.8" fill="#000000" font-family="Verdana" font-size="12">point_de_vie</text>
	<text x="434" y="609.8" fill="#000000" font-family="Verdana" font-size="12">dégât_physique</text>
	<text x="434" y="626.8" fill="#000000" font-family="Verdana" font-size="12">dégât_magique</text>
	<text x="434" y="643.8" fill="#000000" font-family="Verdana" font-size="12">fuite</text>
</g>
</svg>